# xmcd
#
# Track frame offsets:
#	182
#	17337
#	28730
#	47957
#	65412
#	80250
#	95312
#	110612
#	129120
#	144445
#	159557
#	175467
#	192782
#	204690
#
# Disc length: 2953 seconds
#
# Revision: 1
# Processed by: cddbd v1.5.2PL0 Copyright (c) Steve Scherf et al.
# Submitted via: audiograbber 1.83.01
#
DISCID=b60b870e
DTITLE=Various Artist - Spotlight On Hits - Country Vol 26
DYEAR=1900
DGENRE=Country
TTITLE0=Vince Gill - You Better Think Twice
TTITLE1=Shenandoah - Darned If I Do (Danged If I Don't)
TTITLE2=Shania Twain - Any Man Of Mine
TTITLE3=Alan Jackson - I Don't Even Know Your Name
TTITLE4=Trisha Yearwood - You Can Sleep While I Drive
TTITLE5=Diamond Rio - Finish What We Started
TTITLE6=Pam Tillis - In Between Dances
TTITLE7=Rhett Akins - That Ain't My Truck
TTITLE8=Bryan White - Someone Else's Star
TTITLE9=Lorrie Morgan - I Didn't Know My Own Strength
TTITLE10=George Ducas - Hello Cruel World
TTITLE11=Wesley Dennis - Don't Make ME Feel At Home
TTITLE12=Kenny Chesney - Fall In Love
TTITLE13=John Anderson - Mississippi Moon
EXTD=
EXTT0=
EXTT1=
EXTT2=
EXTT3=
EXTT4=
EXTT5=
EXTT6=
EXTT7=
EXTT8=
EXTT9=
EXTT10=
EXTT11=
EXTT12=
EXTT13=
PLAYORDER=
